:SAMPLES-PER-SECOND 30
:FULLY-SPECIFIED
:DEGREES
153
root  -63.418 41.5938 34.1636 0.859726 -34.6316 -0.140793
RightUpLeg  -0.0708964 -6.40492 -2.88744
RightLeg  3.08836 -2.81183 3.03154
RightFoot  -1.22641 0.332087 -3.8427
RightToes  -1.74624e-010 0 -3.6325e-017
Spine  -0.752536 0.195586 3.13767
Spine1  -0.313552 0.866549 -3.99097
HEad  -2.62946 -2.75447 1.61486
LeftShoulder1  0.459333 -1.96075 0.319409
LeftArm  -16.3224 24.7963 -6.40435
LeftForeArm  12.3062 -8.49029 -1.38905
LeftHand  -0.244104 0.0205437 5.32207
RightShoulder  0.366283 -1.02431 7.0381
RightArm  -11.0335 -8.01765 -2.82628
RightForeArm  -2.72898 2.60989 5.52349
RightHand  -0.856738 2.27707 -13.1304
LeftUpLeg  -0.218384 4.26653 1.46115
LeftLeg  -0.506118 9.7408 -4.73281
LeftFoot  0.180454 -0.366279 3.61876
LeftToes  -2.54691e-011 4.12133e-011 -4.68171e-012
154
root  -63.4867 41.5928 34.3335 1.035 -34.9183 -0.052002
RightUpLeg  -0.0717837 -6.41715 -2.99252
RightLeg  3.10632 -2.57564 2.96762
RightFoot  -1.42886 0.326541 -3.8732
RightToes  -1.74624e-010 0 -3.6325e-017
Spine  -0.638802 0.46947 1.88512
Spine1  -0.931377 0.671923 -1.24933
HEad  -3.04855 -0.187866 -1.07458
LeftShoulder1  0.772039 -3.32333 -3.17976
LeftArm  -14.7198 25.1166 -3.99977
LeftForeArm  10.7463 -7.84426 -1.61152
LeftHand  -0.244104 0.0205437 5.32207
RightShoulder  0.231807 -1.39398 2.87102
RightArm  -11.5312 -8.80593 -0.197193
RightForeArm  -1.94337 2.76383 5.28327
RightHand  -0.852346 2.19614 -13.2158
LeftUpLeg  -0.118502 4.11761 1.27139
LeftLeg  -0.585212 10.1829 -4.66935
LeftFoot  -0.0707734 -0.360687 3.65855
LeftToes  -2.54691e-011 4.12133e-011 -4.68171e-012
155
root  -63.5439 41.5882 34.4778 1.20496 -35.0791 -0.0265656
RightUpLeg  -0.0755719 -6.42036 -3.04114
RightLeg  3.16355 -2.47919 2.91383
RightFoot  -1.66218 0.316072 -3.86211
RightToes  -1.74624e-010 0 -3.6325e-017
Spine  -1.03929 -0.0177466 2.76551
Spine1  -0.153121 0.567265 -3.50134
HEad  -2.86633 -2.75375 1.78817
LeftShoulder1  0.450262 -1.84294 -0.0259561
LeftArm  -15.7145 25.2422 -6.59716
LeftForeArm  11.3676 -8.05194 -1.51559
LeftHand  -0.244104 0.0205437 5.32207
RightShoulder  0.356788 -1.04818 6.9569
RightArm  -11.5788 -7.0269 -2.89017
RightForeArm  -3.30822 2.32533 5.48128
RightHand  -0.842111 2.08345 -13.3161
LeftUpLeg  -0.140447 4.00997 1.14946
LeftLeg  -0.443824 10.4554 -4.57882
LeftFoot  -0.340641 -0.35337 3.69035
LeftToes  -2.54691e-011 4.12133e-011 -4.68171e-012
156
root  -63.5945 41.5801 34.6018 1.38338 -35.199 -0.090271
RightUpLeg  -0.0335919 -6.38707 -3.01624
RightLeg  3.17819 -2.41641 2.88161
RightFoot  -1.86423 0.302847 -3.80213
RightToes  -1.74624e-010 0 -3.6325e-017
Spine  -0.997358 -0.07424 2.72089
Spine1  -0.206319 0.453011 -3.19573
HEad  -3.07272 -2.34764 1.51032
LeftShoulder1  0.478765 -1.79472 -0.661713
LeftArm  -16.1232 24.9835 -6.35944
LeftForeArm  11.6174 -7.9531 -1.35169
LeftHand  -0.244104 0.0205437 5.32207
RightShoulder  0.346382 -1.04827 6.43565
RightArm  -11.7975 -6.95434 -2.66385
RightForeArm  -3.63922 2.18213 5.42928
RightHand  -0.838544 1.93948 -13.4201
LeftUpLeg  -0.188534 4.07738 1.17892
LeftLeg  -0.18796 10.5204 -4.58484
LeftFoot  -0.620991 -0.356293 3.83642
LeftToes  -2.54691e-011 4.12133e-011 -4.68171e-012
157
root  -63.6441 41.5735 34.7096 1.5388 -35.3252 -0.135239
RightUpLeg  0.0335016 -6.32118 -2.98897
RightLeg  3.1209 -2.34129 2.83189
RightFoot  -1.97582 0.286891 -3.66245
RightToes  -1.74624e-010 0 -3.6325e-017
Spine  -1.08532 -0.114694 2.50049
Spine1  0.0515322 0.318056 -2.64297
HEad  -3.44793 -1.96577 0.977234
LeftShoulder1  0.498419 -1.51277 -1.63423
LeftArm  -16.4816 24.2856 -5.93457
LeftForeArm  11.6022 -7.76489 -1.23525
LeftHand  -0.244104 0.0205437 5.32207
RightShoulder  0.317787 -1.19328 6.03091
RightArm  -11.9183 -6.5526 -2.56717
RightForeArm  -3.51423 2.02199 5.41594
RightHand  -0.856355 2.02865 -13.5453
LeftUpLeg  -0.178443 4.16226 1.21433
LeftLeg  -0.056478 10.5696 -4.62082
LeftFoot  -0.884277 -0.354656 3.93244
LeftToes  -2.54691e-011 4.12133e-011 -4.68171e-012
158
root  -63.6969 41.5694 34.8105 1.68968 -35.3936 -0.116165
RightUpLeg  0.0943611 -6.26747 -3.00741
RightLeg  3.00616 -2.29233 2.7736
RightFoot  -2.05439 0.260458 -3.37501
RightToes  -1.74624e-010 0 -3.6325e-017
Spine  -1.00899 -0.0448505 2.827
Spine1  -0.366557 0.426508 -2.99393
HEad  -2.9692 -1.74205 0.770239
LeftShoulder1  0.587485 -2.3143 -1.95115
LeftArm  -16.0141 24.1803 -5.32975
LeftForeArm  11.33 -7.39339 -1.3043
LeftHand  -0.244104 0.0205437 5.32207
RightShoulder  0.315256 -1.18162 5.77798
RightArm  -11.5264 -6.91454 -2.53475
RightForeArm  -3.43391 2.19611 5.49843
RightHand  -0.882725 2.10916 -13.8116
LeftUpLeg  -0.156211 4.09664 1.14328
LeftLeg  -0.0771599 10.6932 -4.5675
LeftFoot  -1.08762 -0.338111 3.8405
LeftToes  -2.54691e-011 4.12133e-011 -4.68171e-012
159
root  -63.7542 41.566 34.9026 1.83891 -35.4065 -0.0553284
RightUpLeg  0.122702 -6.26158 -3.06747
RightLeg  2.91449 -2.25485 2.74649
RightFoot  -2.18758 0.230811 -3.06601
RightToes  -1.74624e-010 0 -3.6325e-017
Spine  -0.624792 0.0873273 3.20128
Spine1  -1.74906 0.615878 -3.52364
HEad  -1.47192 -1.13845 0.693033
LeftShoulder1  0.750693 -3.97568 -1.71782
LeftArm  -14.9932 25.0049 -4.65324
LeftForeArm  11.2415 -7.38283 -1.50891
LeftHand  -0.244104 0.0205437 5.32207
RightShoulder  0.404 -0.46625 5.46289
RightArm  -10.7156 -8.37617 -2.66695
RightForeArm  -3.6792 2.65156 5.6129
RightHand  -0.873836 1.90948 -14.0329
LeftUpLeg  -0.149767 3.94985 1.0183
LeftLeg  -0.155904 10.8367 -4.47443
LeftFoot  -1.21115 -0.319878 3.69073
LeftToes  -2.54691e-011 4.12133e-011 -4.68171e-012
160
root  -63.8106 41.5633 34.9737 1.91948 -35.5325 0.0374298
RightUpLeg  0.0916631 -6.28787 -3.14424
RightLeg  2.96417 -2.09995 2.73135
RightFoot  -2.36811 0.21705 -2.96889
RightToes  -1.74624e-010 0 -3.6325e-017
Spine  -0.417482 0.358145 2.08486
Spine1  -2.28814 0.500134 -1.07662
HEad  -2.10703 2.07749 -2.47067
LeftShoulder1  1.06339 -4.75747 -5.05639
LeftArm  -13.9931 24.5655 -2.22715
LeftForeArm  10.6586 -7.74355 -1.77397
LeftHand  -0.244104 0.0205437 5.32207
RightShoulder  0.284709 -0.69696 1.98585
RightArm  -10.9782 -9.36021 -0.327875
RightForeArm  -3.21175 3.04962 5.46139
RightHand  -0.853976 1.74448 -14.0239
LeftUpLeg  -0.0698308 3.85757 0.918861
LeftLeg  -0.294828 11.0481 -4.46171
LeftFoot  -1.28497 -0.310289 3.6141
LeftToes  -2.54691e-011 4.12133e-011 -4.68171e-012
161
root  -63.8601 41.5625 35.0263 1.9088 -35.8492 0.134811
RightUpLeg  0.0381322 -6.29532 -3.20041
RightLeg  3.12494 -1.7963 2.68693
RightFoot  -2.51483 0.223078 -3.10768
RightToes  -1.74624e-010 0 -3.6325e-017
Spine  -0.134682 0.297027 2.51368
Spine1  -2.52874 0.606693 -2.13595
HEad  -1.79084 1.66959 -2.13012
LeftShoulder1  0.959921 -4.47912 -3.98118
LeftArm  -14.1679 24.6441 -2.77989
LeftForeArm  11.0489 -8.25424 -1.83078
LeftHand  -0.244104 0.0205437 5.32207
RightShoulder  0.365584 -0.355322 3.61439
RightArm  -10.7323 -8.99389 -1.26388
RightForeArm  -2.80675 2.99017 5.53886
RightHand  -0.860978 2.0176 -13.64
LeftUpLeg  0.129973 3.8079 0.842721
LeftLeg  -0.50674 11.4097 -4.48996
LeftFoot  -1.35297 -0.300066 3.52651
LeftToes  -2.54691e-011 4.12133e-011 -4.68171e-012
162
root  -63.9022 41.5622 35.0782 1.93393 -36.1364 0.139267
RightUpLeg  0.0377027 -6.2605 -3.17566
RightLeg  3.2004 -1.55919 2.64164
RightFoot  -2.58173 0.235209 -3.30498
RightToes  -1.74624e-010 0 -3.6325e-017
Spine  -0.563339 0.0122909 2.61414
Spine1  -1.27437 0.451903 -2.84274
HEad  -2.21588 0.175659 -1.19072
LeftShoulder1  0.689247 -2.99141 -2.47675
LeftArm  -14.8964 23.9542 -4.29292
LeftForeArm  11.3266 -8.10527 -1.76813
LeftHand  -0.244104 0.0205437 5.32207
RightShoulder  0.437496 -0.356436 6.19635
RightArm  -10.9463 -7.13318 -2.60533
RightForeArm  -2.48905 2.53481 5.62835
RightHand  -0.875545 2.36425 -13.2675
LeftUpLeg  0.270758 3.74066 0.804696
LeftLeg  -0.588665 11.7504 -4.41952
LeftFoot  -1.47779 -0.279727 3.34437
LeftToes  -2.54691e-011 4.12133e-011 -4.68171e-012
163
root  -63.9394 41.5595 35.1322 2.09875 -36.1823 0.0424652
RightUpLeg  0.0511175 -6.21811 -3.0867
RightLeg  3.13821 -1.55847 2.64804
RightFoot  -2.61686 0.239566 -3.41681
RightToes  -1.74624e-010 0 -3.6325e-017
Spine  -0.737552 0.0838796 2.62878
Spine1  -0.968873 0.471506 -2.53254
HEad  -2.55274 0.795928 -1.7756
LeftShoulder1  0.759533 -3.37091 -2.95647
LeftArm  -14.8541 23.505 -4.0972
LeftForeArm  11.3075 -7.30957 -1.67775
LeftHand  -0.244104 0.0205437 5.32207
RightShoulder  0.371849 -0.691117 5.45105
RightArm  -11.1578 -7.10775 -1.74765
RightForeArm  -2.19917 2.61498 5.57017
RightHand  -0.859371 2.21102 -13.2827
LeftUpLeg  0.175494 3.70084 0.836581
LeftLeg  -0.405833 11.8209 -4.28143
LeftFoot  -1.67181 -0.259451 3.18652
LeftToes  -2.54691e-011 4.12133e-011 -4.68171e-012
164
root  -63.9735 41.5545 35.1745 2.28812 -36.1619 -0.0104065
RightUpLeg  -0.0123474 -6.2105 -3.04571
RightLeg  3.11035 -1.59066 2.68104
RightFoot  -2.69351 0.233647 -3.38132
RightToes  -1.74624e-010 0 -3.6325e-017
Spine  -0.69927 0.121974 3.37202
Spine1  -1.21506 0.688079 -3.70896
HEad  -2.23211 0.604506 -1.19249
LeftShoulder1  0.758821 -3.97149 -1.93071
LeftArm  -15.0894 23.6894 -4.62426
LeftForeArm  12.0022 -7.09622 -1.55617
LeftHand  -0.244104 0.0205437 5.32207
RightShoulder  0.399936 -0.642982 6.28482
RightArm  -10.9977 -7.4663 -2.12751
RightForeArm  -2.64766 2.86665 5.60992
RightHand  -0.842281 1.88622 -13.5764
LeftUpLeg  -0.00394887 3.75085 0.894502
LeftLeg  -0.198876 11.7543 -4.26515
LeftFoot  -1.84274 -0.253733 3.18711
LeftToes  -2.54691e-011 4.12133e-011 -4.68171e-012
